<svg xmlns="http://www.w3.org/2000/svg" xmlns:xlink="http://www.w3.org/1999/xlink" viewBox="0 0 711.92 156.75"><defs><style>.cls-1{fill:url(#Degradado_sin_nombre_5);}.cls-2{fill:url(#Degradado_sin_nombre_5-2);}.cls-3{fill:url(#Degradado_sin_nombre_5-3);}.cls-4{fill:url(#Degradado_sin_nombre_5-4);}.cls-5{fill:url(#Degradado_sin_nombre_5-5);}.cls-6{fill:url(#Degradado_sin_nombre_5-6);}.cls-7{fill:url(#Degradado_sin_nombre_5-7);}.cls-8{fill:url(#Degradado_sin_nombre_5-8);}.cls-9{fill:url(#Degradado_sin_nombre_5-9);}.cls-10{fill:url(#Degradado_sin_nombre_5-10);}.cls-11{fill:url(#Degradado_sin_nombre_5-11);}.cls-12{fill:url(#Degradado_sin_nombre_5-12);}.cls-13{fill:url(#Degradado_sin_nombre_9);}.cls-14{fill:url(#Degradado_sin_nombre_5-13);}.cls-15{fill:url(#Degradado_sin_nombre_9-2);}</style><linearGradient id="Degradado_sin_nombre_5" x1="187.36" y1="162.25" x2="187.36" y2="26.93" gradientUnits="userSpaceOnUse"><stop offset="0" stop-color="#fc4a1a"/><stop offset="1" stop-color="#f7b733"/></linearGradient><linearGradient id="Degradado_sin_nombre_5-2" x1="250.61" y1="162.25" x2="250.61" y2="26.93" xlink:href="#Degradado_sin_nombre_5"/><linearGradient id="Degradado_sin_nombre_5-3" x1="305.83" y1="162.25" x2="305.83" y2="26.93" xlink:href="#Degradado_sin_nombre_5"/><linearGradient id="Degradado_sin_nombre_5-4" x1="358.2" y1="162.25" x2="358.2" y2="26.93" xlink:href="#Degradado_sin_nombre_5"/><linearGradient id="Degradado_sin_nombre_5-5" x1="413.78" y1="162.25" x2="413.78" y2="26.93" xlink:href="#Degradado_sin_nombre_5"/><linearGradient id="Degradado_sin_nombre_5-6" x1="460.97" y1="162.25" x2="460.97" y2="26.93" xlink:href="#Degradado_sin_nombre_5"/><linearGradient id="Degradado_sin_nombre_5-7" x1="487.28" y1="162.25" x2="487.28" y2="26.93" xlink:href="#Degradado_sin_nombre_5"/><linearGradient id="Degradado_sin_nombre_5-8" x1="525.2" y1="162.25" x2="525.2" y2="26.93" xlink:href="#Degradado_sin_nombre_5"/><linearGradient id="Degradado_sin_nombre_5-9" x1="576.76" y1="162.25" x2="576.76" y2="26.93" xlink:href="#Degradado_sin_nombre_5"/><linearGradient id="Degradado_sin_nombre_5-10" x1="611.55" y1="162.25" x2="611.55" y2="26.93" xlink:href="#Degradado_sin_nombre_5"/><linearGradient id="Degradado_sin_nombre_5-11" x1="639.21" y1="162.25" x2="639.21" y2="26.93" xlink:href="#Degradado_sin_nombre_5"/><linearGradient id="Degradado_sin_nombre_5-12" x1="687.83" y1="162.25" x2="687.83" y2="26.93" xlink:href="#Degradado_sin_nombre_5"/><linearGradient id="Degradado_sin_nombre_9" x1="480.42" y1="75.86" x2="503.42" y2="64.86" gradientUnits="userSpaceOnUse"><stop offset="0" stop-color="#56ab2f"/><stop offset="1" stop-color="#a8e063"/></linearGradient><linearGradient id="Degradado_sin_nombre_5-13" x1="8.35" y1="125.56" x2="116.43" y2="63.16" xlink:href="#Degradado_sin_nombre_5"/><linearGradient id="Degradado_sin_nombre_9-2" x1="62.39" y1="9.75" x2="101.38" y2="9.75" xlink:href="#Degradado_sin_nombre_9"/></defs><title>Icono Letras FC</title><g id="Capa_2" data-name="Capa 2"><g id="Capa_2-2" data-name="Capa 2"><path class="cls-1" d="M218.59,125.46H204.32V89.14l-16.15,26.5h-1.61l-16.15-26.5v36.32H156.14V63h14.27l17,27.75,17-27.75h14.27Z"/><path class="cls-2" d="M274.61,80.85v44.61H261.23v-4.2c-2.94,3.39-7.32,5.44-13.29,5.44-11.69,0-21.33-10.25-21.33-23.55s9.64-23.55,21.33-23.55c6,0,10.35,2.05,13.29,5.44V80.85Zm-13.38,22.3c0-6.69-4.46-10.88-10.62-10.88S240,96.46,240,103.15,244.46,114,250.61,114,261.23,109.84,261.23,103.15Z"/><path class="cls-3" d="M327.25,98.07v27.39H313.86V100c0-5.53-3.48-8.12-7.76-8.12-4.9,0-8.3,2.85-8.3,9.19v24.36H284.42V80.85H297.8V85c2.41-3.3,6.87-5.44,12.76-5.44C319.57,79.6,327.25,86,327.25,98.07Z"/><path class="cls-4" d="M382.2,63v62.46H368.82v-4.2c-2.95,3.39-7.32,5.44-13.3,5.44-11.68,0-21.32-10.25-21.32-23.55s9.64-23.55,21.32-23.55c6,0,10.35,2.05,13.3,5.44V63Zm-13.38,40.15c0-6.69-4.46-10.88-10.62-10.88s-10.62,4.19-10.62,10.88S352,114,358.2,114,368.82,109.84,368.82,103.15Z"/><path class="cls-5" d="M437.78,80.85v44.61H424.39v-4.2c-2.94,3.39-7.31,5.44-13.29,5.44-11.69,0-21.32-10.25-21.32-23.55S399.41,79.6,411.1,79.6c6,0,10.35,2.05,13.29,5.44V80.85Zm-13.39,22.3c0-6.69-4.46-10.88-10.61-10.88s-10.62,4.19-10.62,10.88S407.62,114,413.78,114,424.39,109.84,424.39,103.15Z"/><path class="cls-6" d="M474.35,80V95.12c-5.53-.89-13.38,1.34-13.38,10.17v20.17H447.59V80.85H461v7.94C462.75,82.81,468.73,80,474.35,80Z"/><path class="cls-7" d="M480.59,80.85H494v44.61H480.59Z"/><path class="cls-8" d="M546.61,98.07v27.39H533.23V100c0-5.53-3.48-8.12-7.76-8.12-4.91,0-8.3,2.85-8.3,9.19v24.36H503.79V80.85h13.38V85c2.41-3.3,6.87-5.44,12.76-5.44C538.94,79.6,546.61,86,546.61,98.07Z"/><path class="cls-9" d="M578.46,114.75a11.64,11.64,0,0,0,8.56-3.39l10.71,6.15c-4.37,6.07-11,9.19-19.45,9.19-15.26,0-24.71-10.25-24.71-23.55S563.2,79.6,577.3,79.6c13,0,22.66,10.08,22.66,23.55a25.61,25.61,0,0,1-.54,5.35H567.75C569.45,113.14,573.55,114.75,578.46,114.75Zm8.2-16.24c-1.42-5.17-5.44-7.05-9.45-7.05-5.09,0-8.48,2.5-9.73,7.05Z"/><path class="cls-10" d="M603.08,118.23a8.48,8.48,0,1,1,8.47,8.47A8.53,8.53,0,0,1,603.08,118.23Z"/><path class="cls-11" d="M662.41,76.74H646.35v48.72H632.07V76.74H616V63h46.4Z"/><path class="cls-12" d="M663.74,111.27l12.31-7.14c2.23,5.18,6.07,8.66,13.12,8.66,6.78,0,8.47-2.68,8.47-5.09,0-3.84-3.56-5.35-12.93-7.94s-18.38-7.05-18.38-19,10.17-19,21-19c10.26,0,18.29,4.91,22.84,14.1l-12,7.05c-2.14-4.46-5.09-7.23-10.8-7.23-4.46,0-6.69,2.23-6.69,4.73,0,2.86,1.52,4.82,11.24,7.76,9.46,2.86,20.08,6.16,20.08,19.36,0,12-9.64,19.18-23.2,19.18C675.61,126.7,667.22,120.46,663.74,111.27Z"/><path class="cls-13" d="M480.59,76h11.6a11.6,11.6,0,0,0,11.6-11.6h-11.6A11.62,11.62,0,0,0,480.59,76Z"/><circle class="cls-14" cx="62.39" cy="94.36" r="62.39"/><path class="cls-15" d="M62.39,19.5H81.88a19.4,19.4,0,0,0,11.7-3.9A19.46,19.46,0,0,0,101.38,0H81.88A19.5,19.5,0,0,0,62.39,19.5Z"/></g></g></svg>