<svg xmlns="http://www.w3.org/2000/svg" xmlns:xlink="http://www.w3.org/1999/xlink" viewBox="0 0 150 150"><defs><style>.cls-1{fill:url(#Degradado_sin_nombre_5);}.cls-2{fill:url(#Degradado_sin_nombre_9);}</style><linearGradient id="Degradado_sin_nombre_5" x1="21.96" y1="128.03" x2="124.95" y2="25.04" gradientUnits="userSpaceOnUse"><stop offset="0" stop-color="#fc4a1a"/><stop offset="1" stop-color="#f7b733"/></linearGradient><linearGradient id="Degradado_sin_nombre_9" x1="75.19" y1="37.66" x2="149.19" y2="0.16" gradientUnits="userSpaceOnUse"><stop offset="0" stop-color="#56ab2f"/><stop offset="1" stop-color="#a8e063"/></linearGradient></defs><title>Icono Simple FullColor</title><g id="Capa_2" data-name="Capa 2"><g id="Capa_1-2" data-name="Capa 1"><path class="cls-1" d="M0,75A75,75,0,1,0,142.79,42.87,51.88,51.88,0,0,1,112.5,52.5H105A37.5,37.5,0,1,1,60,40.62V37.5A52.5,52.5,0,0,1,75.77,0c-.26,0-.51,0-.77,0A75,75,0,0,0,0,75Z"/><path class="cls-2" d="M75,37.5h37.5A37.35,37.35,0,0,0,135,30,37.43,37.43,0,0,0,150,0H112.5A37.52,37.52,0,0,0,75,37.5Z"/></g></g></svg>